PathFileType	4	(X/Y/Z)	Kaydara	
DataRate	CameraRate	NumFrames	NumMarkers	Units	OrigDataRate	OrigDataStartFrame	OrigNumFrames	
60.00	60.00	4	74	mm	60.00	242	96	
Frame#	Time	Z_lasi			Z_rasi			Z_rpsi			Z_lpsi			Z_fneck			Z_bneck			Z_fhead			Z_rhead			Z_lhead			Z_rshld			Z_relbtop			Z_relbext			Z_relblow			Z_rwrext			Z_rwrtop			Z_rwrlow			Z_lshld			Z_lelbext			Z_lelblow			Z_lelbtop			Z_lwrext			Z_lwrtop			Z_lwrlow			Z_rtopleg			Z_ltopleg			Z_rkneefr			Z_rkneebk			Z_rkneeis			Z_lkneefr			Z_lknssbk			Z_lkneeis			Z_rankfr			Z_rankis			Z_rankbk			Z_lankfr			Z_lankbk			Z_lankis			A_lasi			A_rasi			A_rpsi			A_lpsi			A_fneck			A_bneck			A_fhead			A_rhead			A_lhead			A_rshld			A_relbtop			A_relbext			A_relblow			A_rwrext			A_rwrtop			A_rwrlow			A_lshld			A_lelbext			A_lelblow			A_lelbtop			A_lwrext			A_lwrtop			A_lwrlow			A_rtopleg			A_ltopleg			A_rkneefr			A_rkneebk			A_rkneeis			A_lkneefr			A_lknssbk			A_lkneeis			A_rankfr			A_rankis			A_rankbk			A_lankfr			A_lankbk			A_lankis			
		X1	Y1	Z1	X2	Y2	Z2	X3	Y3	Z3	X4	Y4	Z4	X5	Y5	Z5	X6	Y6	Z6	X7	Y7	Z7	X8	Y8	Z8	X9	Y9	Z9	X10	Y10	Z10	X11	Y11	Z11	X12	Y12	Z12	X13	Y13	Z13	X14	Y14	Z14	X15	Y15	Z15	X16	Y16	Z16	X17	Y17	Z17	X18	Y18	Z18	X19	Y19	Z19	X20	Y20	Z20	X21	Y21	Z21	X22	Y22	Z22	X23	Y23	Z23	X24	Y24	Z24	X25	Y25	Z25	X26	Y26	Z26	X27	Y27	Z27	X28	Y28	Z28	X29	Y29	Z29	X30	Y30	Z30	X31	Y31	Z31	X32	Y32	Z32	X33	Y33	Z33	X34	Y34	Z34	X35	Y35	Z35	X36	Y36	Z36	X37	Y37	Z37	X38	Y38	Z38	X39	Y39	Z39	X40	Y40	Z40	X41	Y41	Z41	X42	Y42	Z42	X43	Y43	Z43	X44	Y44	Z44	X45	Y45	Z45	X46	Y46	Z46	X47	Y47	Z47	X48	Y48	Z48	X49	Y49	Z49	X50	Y50	Z50	X51	Y51	Z51	X52	Y52	Z52	X53	Y53	Z53	X54	Y54	Z54	X55	Y55	Z55	X56	Y56	Z56	X57	Y57	Z57	X58	Y58	Z58	X59	Y59	Z59	X60	Y60	Z60	X61	Y61	Z61	X62	Y62	Z62	X63	Y63	Z63	X64	Y64	Z64	X65	Y65	Z65	X66	Y66	Z66	X67	Y67	Z67	X68	Y68	Z68	X69	Y69	Z69	X70	Y70	Z70	X71	Y71	Z71	X72	Y72	Z72	X73	Y73	Z73	X74	Y74	Z74	

37	4.017	-250.67539	1084.08768	635.24445	-348.23006	1080.12733	450.01045	-199.12716	1112.40379	329.41410	-79.53372	1108.85254	547.42828	-315.52704	1432.20230	493.98346	-227.73455	1516.52832	456.88675	-464.00387	1577.82776	474.65164	-334.55803	1630.77637	381.11252	-314.07383	1641.58325	527.69997	-337.38533	1422.56851	305.84661	-451.87321	1129.17580	355.44437	-413.24726	1117.19933	402.42268	-477.90684	1192.40440	394.83418	-619.46037	1054.47289	531.12602	-635.66216	1097.86415	532.21455	-607.38750	1110.49393	562.16511	-158.04736	1477.90771	633.28938	-76.40145	1172.26723	657.26555	-116.55090	1200.04860	733.82233	-48.23207	1202.98233	716.92459	-174.39026	947.86598	777.47910	-146.96236	945.52109	817.04407	-107.37535	940.17563	794.61136	-245.94513	923.77747	305.14313	-153.53247	898.26820	658.37845	-288.87201	423.95847	401.76167	-224.94986	446.15910	342.09911	-214.83219	437.02370	465.14336	-235.87543	453.46817	651.53259	-131.65953	475.63717	630.24223	-233.26080	444.44435	560.68718	-260.30441	178.91968	396.70769	-231.11046	179.08192	456.98174	-185.63618	167.47303	382.86171	-162.73468	169.33289	657.14561	-106.95621	172.63523	599.72393	-185.66368	175.36358	587.89490	-1042.94884	1046.12381	475.14252	-1011.33392	1048.05191	632.26692	-1163.81393	1032.73392	674.32083	-1165.08118	1043.92899	490.33981	-1104.97757	1383.94913	592.81281	-1243.10524	1409.03381	608.12508	-1043.70422	1587.18094	585.94658	-1173.80630	1561.53091	696.27769	-1202.70035	1557.57111	535.20752	-1141.03897	1352.45132	771.47781	-957.64839	1139.74510	758.29224	-994.14932	1087.90016	748.33054	-966.33392	1136.02333	700.86479	-737.58270	1049.32152	684.20380	-733.43277	1095.74623	686.78658	-755.14709	1091.60355	652.38312	-1180.27161	1361.25809	425.84648	-1190.39047	1048.63197	416.50368	-1122.77893	1063.37280	400.03727	-1169.53506	1058.66798	372.36698	-1092.29271	835.11688	374.92390	-1122.31613	837.06467	339.52953	-1080.83702	848.97125	324.04919	-1087.60780	875.54672	740.79605	-1095.53368	896.36536	398.84521	-1031.92429	456.42212	636.20369	-1138.48282	485.41134	687.20482	-1124.61426	486.88873	568.23662	-987.48306	477.50504	510.68718	-1087.35245	481.21170	427.38350	-1090.68153	478.74077	551.09261	-1097.43759	166.42887	658.94287	-1133.84010	163.58885	594.84741	-1177.80922	153.35362	665.85373	-1060.96313	170.16644	454.21616	-1124.09119	176.52203	423.62404	-1114.83444	177.14739	512.96131 
38	4.033	-248.51364	1083.83904	636.86806	-345.95154	1079.92088	452.05257	-197.29357	1112.74559	331.09764	-77.56722	1108.96019	549.03645	-314.08606	1430.63614	496.62792	-229.29760	1516.60904	460.22274	-466.81938	1572.37579	479.84020	-338.96652	1629.47998	386.62884	-318.52068	1638.79623	533.33286	-338.31684	1421.80511	308.81075	-449.48067	1125.32646	355.95543	-411.64219	1115.03349	404.08875	-477.41333	1189.44031	393.79524	-618.71395	1053.82942	531.31828	-634.70818	1097.16835	532.30198	-606.58783	1110.36377	562.73193	-157.11583	1478.05878	635.49274	-74.76240	1172.53014	658.84354	-115.14786	1199.83543	735.29854	-46.86457	1203.10898	718.95760	-173.43193	947.60223	777.47154	-147.04337	945.40962	817.51221	-106.66962	940.21477	795.53764	-243.80171	923.92975	306.48746	-151.46734	898.11378	659.72977	-288.21045	424.04121	402.41520	-224.26956	446.22166	342.68745	-214.01979	436.76411	465.61283	-233.72143	453.35350	651.98517	-129.23396	475.31811	630.28141	-231.10220	444.28917	560.89832	-260.01719	178.97835	396.92802	-230.84005	179.00316	457.20440	-185.40852	167.42941	382.96387	-161.49168	168.89545	656.86531	-106.17867	172.03485	599.64355	-184.86277	175.37157	588.25657	-1038.75969	1047.06367	474.59980	-1008.25638	1048.56468	631.88656	-1160.89439	1032.88818	672.67326	-1161.03134	1044.78622	488.78136	-1103.19283	1384.04816	592.13337	-1241.80183	1409.86099	606.02634	-1041.34254	1586.88263	586.47549	-1172.53815	1561.60751	695.33470	-1200.09850	1558.44955	534.20929	-1139.80530	1351.97540	770.50262	-957.49924	1138.35999	754.76974	-994.69315	1086.38771	747.31178	-968.06831	1133.13568	698.04428	-738.03856	1048.94112	682.13760	-734.22363	1095.52155	685.16006	-755.61874	1091.31737	650.57014	-1177.18643	1361.91833	424.67041	-1188.44948	1049.22569	414.31610	-1120.70122	1063.54820	398.27187	-1167.45697	1059.33067	370.25394	-1092.29393	835.02998	372.30057	-1122.51663	837.36092	336.90769	-1080.87952	848.87596	321.57642	-1084.67842	875.88158	739.38553	-1091.21590	897.52441	397.86400	-1029.84009	456.57967	635.26573	-1136.36292	485.81005	686.05095	-1122.49992	487.27238	567.26486	-991.98921	477.48623	509.45724	-1090.72769	482.17022	425.56213	-1095.49347	479.93191	549.43905	-1096.73264	166.79115	658.43147	-1133.26561	163.94178	594.41822	-1177.27219	154.16396	665.37880	-1062.22939	170.32568	453.53500	-1125.45166	175.84238	422.81376	-1116.70197	177.06852	511.98128 
39	4.050	-245.67417	1083.40141	638.87981	-343.50067	1079.53033	453.61763	-195.63255	1113.04443	332.85229	-75.04310	1109.13696	550.35179	-315.21017	1428.47855	500.71983	-231.46824	1516.43097	464.17835	-470.03696	1567.89597	485.49274	-343.14041	1627.88162	392.57988	-322.36729	1635.79681	539.23935	-339.58622	1420.89676	312.00039	-446.67538	1120.57167	353.89000	-409.53476	1111.18729	402.61761	-475.18200	1185.68977	391.00838	-617.44953	1055.92827	530.74471	-632.45392	1099.61006	530.78289	-603.96210	1113.22090	560.85697	-156.40991	1477.87827	638.00056	-72.48838	1172.63206	660.54665	-112.94159	1199.79843	736.91559	-44.62748	1202.97012	720.75508	-172.09782	947.56920	777.23236	-146.88036	945.40878	818.04619	-106.01558	940.23087	796.65199	-241.64867	924.09904	307.72652	-148.77151	897.81975	661.00441	-287.74994	424.11316	403.08838	-223.75101	446.25263	343.35957	-214.09138	436.73664	466.66290	-231.94700	453.22754	652.49832	-127.43813	474.86156	630.87013	-229.26764	444.10610	561.47995	-259.82128	179.00923	397.26734	-230.55370	178.92784	457.40177	-185.24193	167.37537	383.19618	-160.93401	168.38545	657.24274	-105.43489	171.44489	599.84936	-184.23462	175.13077	588.48026	-1035.05135	1047.60056	473.95050	-1005.43175	1048.76205	631.46420	-1158.16391	1032.84691	671.08208	-1157.33696	1045.08583	487.38918	-1101.26793	1384.01566	591.43265	-1240.39795	1409.97147	604.21810	-1039.19937	1586.59134	587.12376	-1171.50070	1561.22162	694.72931	-1197.57904	1558.83286	533.33149	-1137.84111	1351.25397	769.50127	-957.63382	1136.28922	751.22322	-994.77333	1084.15901	744.73106	-969.31526	1130.98480	695.02388	-737.43027	1054.49974	679.27185	-734.35280	1100.84274	682.33574	-755.60646	1096.57074	647.84760	-1174.55261	1362.06680	423.69114	-1186.73386	1049.68811	412.28493	-1118.87108	1063.69514	396.46931	-1165.41756	1059.89677	368.38772	-1091.99684	835.00710	369.67880	-1122.44949	837.62360	334.39499	-1080.59296	848.94188	318.99763	-1082.14943	876.13579	738.09052	-1086.18553	898.20084	396.28143	-1028.37013	456.59504	634.37759	-1134.72763	486.22849	685.36758	-1121.51497	487.75970	565.89630	-996.46362	477.03903	508.29250	-1094.01398	482.73800	423.72356	-1100.24513	480.71342	547.80941	-1096.31538	166.96867	658.16940	-1132.75574	164.21022	594.00764	-1176.82556	154.72653	665.15350	-1063.59451	170.44580	453.26588	-1126.73996	175.20351	422.33898	-1118.45261	177.13997	511.38802 
40	4.067	-242.06577	1082.62779	641.24611	-341.23119	1079.19167	457.21142	-194.12596	1113.28568	334.70421	-72.23984	1109.35410	551.53950	-316.95835	1426.03638	505.32803	-234.11070	1515.93597	468.68935	-473.06965	1564.56345	491.07758	-346.64009	1626.24603	398.74847	-326.14063	1632.79816	545.40535	-341.18908	1419.90158	315.69790	-442.93831	1115.32822	349.94259	-406.48125	1105.95230	399.14429	-471.50051	1181.55518	386.95518	-615.50598	1060.35416	528.77502	-629.47472	1104.38538	527.38487	-600.03014	1117.57217	557.62230	-156.40772	1477.06757	641.20132	-69.70053	1172.52541	662.22946	-110.20365	1199.44565	738.91243	-41.74767	1202.61429	722.49992	-170.87233	947.78770	777.38998	-146.17193	945.45151	818.47961	-104.91309	940.23376	797.56912	-239.73656	924.20120	309.76734	-145.46695	897.44827	662.32254	-287.18405	424.16424	403.95973	-223.31438	446.29078	344.08516	-213.66405	436.57307	467.54284	-229.83313	453.01723	652.99301	-125.71107	474.39758	631.59676	-227.68635	443.97545	562.20722	-259.71048	179.03345	397.57099	-230.44441	178.77748	457.62238	-185.13138	167.33246	383.39905	-160.46591	167.95576	657.66899	-104.88234	170.83622	600.35767	-183.47630	174.80486	588.69942	-1031.67160	1047.73010	473.12679	-1002.51083	1048.74962	630.64537	-1155.58151	1032.54471	669.62875	-1154.36668	1044.96582	485.79563	-1099.08279	1383.77258	590.55847	-1238.75412	1409.63394	602.56451	-1037.04666	1586.39236	587.77031	-1170.38208	1560.55771	694.08852	-1194.89243	1558.80707	532.40318	-1135.75394	1350.45868	768.34396	-957.75108	1134.50027	748.67332	-994.01291	1081.95717	741.32065	-969.29199	1130.20531	692.64282	-736.12434	1065.00366	675.43266	-734.58687	1111.28372	678.03406	-755.53711	1106.13464	643.65402	-1172.72110	1362.43881	422.63237	-1185.05821	1049.88625	410.39787	-1117.27417	1063.78189	394.82479	-1163.73947	1060.29404	366.55617	-1091.41418	834.94064	367.05582	-1121.98082	837.82333	331.88789	-1080.13672	848.98384	316.41077	-1079.75685	876.11946	736.72470	-1081.35597	898.34427	394.69250	-1027.35123	456.41590	633.68572	-1133.54446	486.52428	684.93515	-1121.59790	487.93583	563.57361	-1000.40688	476.08192	507.00878	-1097.15736	483.06160	422.05009	-1104.65958	481.11794	546.20293	-1096.02089	167.05366	658.02528	-1132.52930	164.33348	593.87238	-1176.48544	154.98952	665.07408	-1064.74709	170.48111	452.89272	-1128.10242	174.42608	422.12234	-1119.85840	176.94113	511.03848 
